name analog
datacolumns 19
datarows 32
range 0.0 0.0155
endheader
time	ground_force_vx	ground_force_vy	ground_force_vz	ground_force_px	ground_force_py	ground_force_pz	l_ground_force_vx	l_ground_force_vy	l_ground_force_vz	l_ground_force_px	l_ground_force_py	l_ground_force_pz	ground_torque_x	ground_torque_y	ground_torque_z	l_ground_torque_x	l_ground_torque_y	l_ground_torque_z
0.0	-0.0	-0.0	-0.0	-15.261346817016602	50.65778732299805	-267.3069763183594	-17.77521514892578	-57.13755035400391	-425.6418762207031	-0.0	-0.0	-0.0	-0.0	-0.0	-0.0	117671.859375	6683.2724609375	-7646.3916015625
0.0005	-0.0	-0.0	-0.0	-15.439719200134276	50.36497497558594	-268.16729736328125	-18.001726150512695	-56.771244049072266	-424.6716918945313	-0.0	-0.0	-0.0	-0.0	-0.0	-0.0	117768.2890625	6989.44091796875	-7479.48046875
0.001	-0.0	-0.0	-0.0	-15.611839294433594	49.187538146972656	-270.3305969238281	-17.558244705200195	-56.31046295166016	-425.3688354492188	-0.0	-0.0	-0.0	-0.0	-0.0	-0.0	117956.015625	6869.79638671875	-7497.7880859375
0.0015	-0.0	-0.0	-0.0	-15.7010498046875	48.72352600097656	-270.63348388671875	-17.361595153808594	-55.92683410644531	-426.0408935546875	-0.0	-0.0	-0.0	-0.0	-0.0	-0.0	118228.0546875	6673.4892578125	-7614.09716796875
0.002	-0.0	-0.0	-0.0	-16.33771514892578	47.01435470581055	-274.1400146484375	-16.690345764160156	-56.06528091430664	-427.83587646484375	-0.0	-0.0	-0.0	-0.0	-0.0	-0.0	119118.328125	6985.0126953125	-7586.18798828125
0.0025	-0.0	-0.0	-0.0	-16.635469436645508	45.95505142211914	-277.3659362792969	-16.354326248168945	-55.90134811401367	-431.4768981933594	-0.0	-0.0	-0.0	-0.0	-0.0	-0.0	119682.359375	6838.24169921875	-7490.62060546875
0.003	-0.0	-0.0	-0.0	-17.217628479003906	45.02281188964844	-283.9092712402344	-16.24656867980957	-56.39278030395508	-433.3463745117188	-0.0	-0.0	-0.0	-0.0	-0.0	-0.0	120361.4609375	6869.951171875	-7439.798828125
0.0035	-0.0	-0.0	-0.0	-17.883480072021484	43.424224853515625	-289.25439453125	-15.175719261169434	-57.23860168457031	-436.5124206542969	-0.0	-0.0	-0.0	-0.0	-0.0	-0.0	121448.15625	6954.50390625	-7164.0400390625
0.004	-0.0	-0.0	-0.0	-18.10973358154297	42.770877838134766	-294.6680908203125	-14.87890625	-58.17349624633789	-440.9544067382813	-0.0	-0.0	-0.0	-0.0	-0.0	-0.0	122479.5859375	6855.66796875	-7102.77197265625
0.0045000000000000005	-0.0	-0.0	-0.0	-17.871105194091797	42.31376266479492	-302.4368591308594	-14.340819358825684	-58.66371536254883	-442.1214294433594	-0.0	-0.0	-0.0	-0.0	-0.0	-0.0	123076.4140625	6823.529296875	-6936.82080078125
0.005	-0.0	-0.0	-0.0	-16.728187561035156	41.1782455444336	-312.56427001953125	-13.94557285308838	-59.611175537109375	-447.2396545410156	-0.0	-0.0	-0.0	-0.0	-0.0	-0.0	123778.9140625	6850.61474609375	-6816.12060546875
0.0055	-0.0	-0.0	-0.0	-15.7010498046875	40.48222351074219	-321.2204284667969	-13.655516624450684	-59.882102966308594	-447.68255615234375	-0.0	-0.0	-0.0	-0.0	-0.0	-0.0	124559.765625	7204.07275390625	-6624.2529296875
0.006	-0.0	-0.0	-0.0	-14.08965301513672	40.0251579284668	-334.24139404296875	-13.383581161499023	-60.47111892700195	-450.0333251953125	-0.0	-0.0	-0.0	-0.0	-0.0	-0.0	124959.2265625	7433.2314453125	-6673.55126953125
0.006500000000000001	-0.0	-0.0	-0.0	-11.87055492401123	39.874603271484375	-346.9766845703125	-13.16413402557373	-60.548095703125	-451.36138916015625	-0.0	-0.0	-0.0	-0.0	-0.0	-0.0	125655.7578125	7461.20849609375	-6752.63671875
0.007	-0.0	-0.0	-0.0	-9.67998218536377	39.08853149414063	-361.7867736816406	-12.63150405883789	-60.730899810791016	-451.4303894042969	-0.0	-0.0	-0.0	-0.0	-0.0	-0.0	126009.0	7564.08447265625	-6582.0888671875
0.0075	-0.0	-0.0	-0.0	-7.082614898681641	39.36313247680664	-376.13665771484375	-12.651504516601562	-60.2297248840332	-452.4780883789063	-0.0	-0.0	-0.0	-0.0	-0.0	-0.0	125899.078125	8191.8984375	-6841.31787109375
0.008	-0.0	-0.0	-0.0	-3.736094474792481	39.285037994384766	-387.8128356933594	-12.070307731628418	-59.3521728515625	-449.7738952636719	-0.0	-0.0	-0.0	-0.0	-0.0	-0.0	125774.375	8579.845703125	-6727.732421875
0.0085	-0.0	-0.0	-0.0	-1.752336025238037	38.97652816772461	-397.8488464355469	-12.513800621032717	-58.320091247558594	-449.3142395019531	-0.0	-0.0	-0.0	-0.0	-0.0	-0.0	125214.0234375	8966.0703125	-7087.486328125
0.009000000000000001	-0.0	-0.0	-0.0	0.676868736743927	39.30651092529297	-405.9697265625	-12.702165603637695	-57.6685791015625	-446.1507263183594	-0.0	-0.0	-0.0	-0.0	-0.0	-0.0	124317.5234375	9474.7412109375	-7406.34375
0.0095	-0.0	-0.0	-0.0	3.1327483654022217	39.86203384399414	-414.0707092285156	-13.145572662353516	-56.68621826171875	-441.39208984375	-0.0	-0.0	-0.0	-0.0	-0.0	-0.0	123195.4140625	10445.1005859375	-7762.4111328125
0.01	-0.0	-0.0	-0.0	4.763988494873047	40.29205703735352	-418.225830078125	-13.744784355163574	-55.70416641235352	-436.7462768554688	-0.0	-0.0	-0.0	-0.0	-0.0	-0.0	121945.59375	11013.61328125	-8057.47509765625
0.0105	-0.0	-0.0	-0.0	7.052698612213135	41.886226654052734	-423.81591796875	-14.392496109008787	-54.04755783081055	-431.4883728027344	-0.0	-0.0	-0.0	-0.0	-0.0	-0.0	120394.015625	12063.970703125	-8424.2431640625
0.011	-0.0	-0.0	-0.0	8.73762321472168	42.60933303833008	-426.641357421875	-15.357519149780272	-52.3800163269043	-424.1777038574219	-0.0	-0.0	-0.0	-0.0	-0.0	-0.0	118650.2890625	13161.6962890625	-8872.9326171875
0.0115	-0.0	-0.0	-0.0	10.085721969604492	43.64924621582031	-429.8981323242188	-16.317581176757812	-50.234317779541016	-417.1337890625	-0.0	-0.0	-0.0	-0.0	-0.0	-0.0	116814.2265625	13921.2314453125	-9459.26953125
0.012	-0.0	-0.0	-0.0	11.58759593963623	44.47607421875	-432.761474609375	-17.39246940612793	-48.11992263793945	-409.5142822265625	-0.0	-0.0	-0.0	-0.0	-0.0	-0.0	114843.484375	14670.8896484375	-10056.2099609375
0.0125	-0.0	-0.0	-0.0	12.583505630493164	45.2734260559082	-437.628173828125	-18.81178092956543	-45.72019958496094	-400.745849609375	-0.0	-0.0	-0.0	-0.0	-0.0	-0.0	112265.7890625	15411.3154296875	-10756.5595703125
0.013000000000000001	-0.0	-0.0	-0.0	12.964031219482422	46.08042144775391	-440.4906311035156	-20.304725646972656	-42.7526969909668	-392.1368103027344	-0.0	-0.0	-0.0	-0.0	-0.0	-0.0	110430.2578125	16357.16015625	-11139.802734375
0.0135	-0.0	-0.0	-0.0	13.513106346130373	47.07964324951172	-444.969482421875	-21.75403594970703	-40.08319091796875	-381.5640258789063	-0.0	-0.0	-0.0	-0.0	-0.0	-0.0	107975.8046875	16526.720703125	-11843.58203125
0.014	-0.0	-0.0	-0.0	14.71047306060791	47.92902374267578	-447.1624450683594	-23.52306365966797	-37.76263427734375	-372.7974548339844	-0.0	-0.0	-0.0	-0.0	-0.0	-0.0	105582.1875	16885.529296875	-12514.8828125
0.0145	-0.0	-0.0	-0.0	15.071995735168455	47.88591003417969	-449.5618286132813	-25.02129364013672	-35.19688034057617	-364.0887756347656	-0.0	-0.0	-0.0	-0.0	-0.0	-0.0	102790.046875	17715.318359375	-12986.67578125
0.015	-0.0	-0.0	-0.0	14.83154010772705	48.15299224853516	-454.0999450683594	-26.040172576904297	-32.571624755859375	-355.39862060546875	-0.0	-0.0	-0.0	-0.0	-0.0	-0.0	100606.75	17856.62109375	-13431.7353515625
0.0155	-0.0	-0.0	-0.0	15.339761734008787	48.49138259887695	-454.2950134277344	-27.327640533447266	-30.480377197265625	-346.3212585449219	-0.0	-0.0	-0.0	-0.0	-0.0	-0.0	98184.7421875	18000.19921875	-13532.2060546875
